<?xml version="1.0" encoding="utf-8"?>
<!-- Generator: Adobe Illustrator 24.0.1, SVG Export Plug-In . SVG Version: 6.00 Build 0)  -->
<svg version="1.1" id="Layer_1" xmlns="http://www.w3.org/2000/svg" xmlns:xlink="http://www.w3.org/1999/xlink" x="0px" y="0px"
	 viewBox="0 0 119.9 43.9" enable-background="new 0 0 119.9 43.9" xml:space="preserve">
<path fill="#0D1E2D" d="M117.9,27.7L117.9,27.7c-4.2-1.8-10.4-1.7-10.4-1.7c-4.9-0.2-9.1,1.7-9.1,1.7c-0.7,0.1-0.8-0.4-0.8-2
	c-0.2-7.7-0.4-15.4-0.7-23.1c0-1.3-0.6-1.6-1.8-1c-5.5,2.6-10.9,5.2-16.4,7.7c-0.9,0.4-1.3,0.9-1,1.8c0.8,2.5,1.5,5.1,2.3,7.9
	c4.1-3.6,8.1-7,12.6-10.9c-0.8,11.1-1.9,21.6-3.2,32.6l3.4-3.2c2.6-2.4,5.6-4.4,7.7-5.7c3.5-1.9,7.7-3.5,12.2-3.8c0.4,0,0.8,0,1.1,0
	c1.5,0,3.1,0.1,4.7,0.2C118.4,28,118.1,27.8,117.9,27.7z"/>
<g>
	<path fill="#0D1E2D" d="M106.5,31.4c-2.9,0-5.6,2.3-5.5,5.6c0,3.2,2.4,5.6,5.7,5.6c3,0,5.5-2.5,5.5-5.5
		C112.3,33.9,109.7,31.4,106.5,31.4z M106.7,40.8c-2.1,0-3.8-1.6-3.8-3.7c0-2.1,1.7-3.7,3.8-3.7c2,0,3.6,1.7,3.6,3.7
		C110.3,39.1,108.7,40.8,106.7,40.8z"/>
	<path fill="#0D1E2D" d="M107.8,35.8c0.4-0.1,0.8-0.3,1.1-0.7c-0.3-0.4-0.8-0.6-1.2-0.8c-0.1,0-0.2,0.1-0.2,0.2c0,0.4,0,0.7,0,1.1
		C107.4,35.7,107.5,35.8,107.8,35.8z"/>
	<path fill="#0D1E2D" d="M105.5,38.3c-0.4,0.2-0.8,0.4-1.1,0.6c0,0.1,0,0.1,0,0.2c0.4,0.2,0.7,0.4,1.1,0.7c0.3,0.2,0.4,0,0.4-0.2
		c0-0.3,0-0.7,0-1C105.9,38.4,105.7,38.2,105.5,38.3z"/>
	<path fill="#0D1E2D" d="M108.7,37.7c0.2,0.1,0.5,0.2,0.7,0.3c0.1-0.3,0.2-0.5,0.2-0.8c-0.1-0.9-0.2-0.9-1-0.5
		C108,37,108,37.2,108.7,37.7z"/>
	<path fill="#0D1E2D" d="M106.1,35.4c0-0.3,0-0.7-0.1-1c0-0.1-0.2-0.2-0.3-0.2c-0.4,0.2-0.8,0.4-1.2,0.6c0,0.1,0,0.1,0,0.2
		c0.3,0.2,0.7,0.5,1.1,0.6C105.8,35.8,106,35.7,106.1,35.4z"/>
	<path fill="#0D1E2D" d="M107.2,38.7c0,0.3,0,0.7,0,1c0,0.2,0.1,0.3,0.3,0.2c0.4-0.2,0.8-0.4,1.2-0.6c0-0.1,0-0.1,0-0.2
		c-0.4-0.2-0.7-0.4-1.1-0.6C107.4,38.3,107.2,38.4,107.2,38.7z"/>
	<path fill="#0D1E2D" d="M104.9,36.6c-0.3-0.2-0.5-0.3-0.8-0.5c-0.2-0.1-0.3,0-0.3,0.1c-0.1,0.5-0.1,0.9,0.1,1.4
		c0.4-0.2,0.7-0.3,1-0.5C105.2,37,105.2,36.8,104.9,36.6z"/>
	<path fill="#FBB132" d="M107.9,37.2c0-0.7-0.5-1.2-1.2-1.2c-0.7,0-1.2,0.5-1.2,1.1c0,0.7,0.5,1.2,1.1,1.2
		C107.3,38.3,107.9,37.8,107.9,37.2z M106.6,37.7c-0.3,0-0.6-0.3-0.6-0.7c0-0.3,0.3-0.6,0.6-0.6c0.3,0,0.6,0.4,0.6,0.6
		C107.3,37.5,107,37.8,106.6,37.7z"/>
	<circle fill="#0D1E2D" cx="106.7" cy="37.1" r="0.3"/>
</g>
<path fill="#0D1E2D" d="M44.1,19.5c2.3,0,4.2,2,5.8,6c0.6,0.6,1.3,2.5,2.2,5.6c1.8,1,2.7,1.9,2.7,2.7c0,0.6-0.5,1.3-1.6,2
	c0.1,1.2,0.5,2.5,1.3,3.8v0.2c-0.2,1.2-0.7,1.8-1.5,1.8c-2.2-0.3-3.3-0.9-3.3-1.6c-0.4-2.9-1.1-4.4-2.2-4.4h-0.2
	c-3.6,0.3-5.4,0.7-5.4,1.5c-0.5,3.4-1.3,5.1-2.5,5.1c-2.1-0.3-3.1-1.3-3.1-3.1v-0.4c0-1.6,1.9-7.2,5.6-16.9
	C42.7,20.3,43.4,19.5,44.1,19.5z M43.9,31.1l0.7,0.5h1.1c0.8,0,1.3-0.4,1.3-1.1c-0.4-2.3-0.8-3.4-1.3-3.4h-0.2
	C45.1,27.4,44.6,28.7,43.9,31.1z"/>
<path fill="#0D1E2D" d="M61.6,18.6c3.5,0,6.2,1.8,8.2,5.4l0.2,1.1v1.3c0,1.4-1.3,2.7-3.8,3.8c-0.6,0.1-0.9,0.3-0.9,0.5
	c0,0.7,2.2,3.2,6.6,7.2l0.7,1.8c-0.6,1.1-1.2,1.6-2,1.6c-1.2,0-4.3-3-9.3-9.1c-0.2,0.1-0.4,0.2-0.5,0.2v4.2c0,0.5,0.2,1.5,0.5,3.1
	c0,1-0.7,1.7-2,2H59c-1.2,0-2.4-1-3.4-3.1l0.2-0.7c-0.2-1.8-0.4-3.3-0.4-4.4c0-0.5,0.1-1.2,0.2-2c0-0.4-0.3-1.5-0.9-3.4
	c0-0.4,0.4-0.9,1.1-1.5c0-0.7,0-1.5,0-2.5c-0.2-0.8-0.4-1.2-0.4-1.3L55.2,22c0.5-1.9,2.4-3,5.8-3.3H61.6z M60.5,26.3l0.5,1
	c2.5,0.9,4.1,0,4.7-2.7c-0.8-1-1.5-1.5-2.2-1.5l-1.5-0.1c-0.4,0-0.9,1-1.5,2.9V26.3z"/>
<path fill="#0D1E2D" d="M86.6,19.4c1.7,0.5,2.5,1.3,2.5,2.4v1.5c-0.3,0.5-0.7,0.9-1.3,1.1c-0.2,0-1-0.1-2.5-0.2
	c-2.4,0.1-3.2,0-2.2-0.4l-0.5,0.7V25L81.8,32v2.4c0,0.6,0,2.6-0.1,6c0,0.7-0.7,1.1-2,1.3h-0.4c-1.9-1.1-2.5-3.5-1.7-7.2v-1.3
	c0-1.4,0.1-4.1,0.2-8.2l-0.7-0.6c-0.8,0-2.2,0.4-4.2,1.3h-0.2c-1.1,0-1.9-0.9-2.2-2.7v-0.6c0-1.5,2.2-2.4,6.5-2.7
	C81.1,19.5,84.2,19.4,86.6,19.4z"/>
<path fill="#FBB132" d="M9.8,37c0.5,0,0.9-0.5,0.9-1c0-0.6-0.4-1-0.9-1H7.1c-0.5,0-0.9,0.5-0.9,1c0,0.6,0.4,1,0.9,1H9.8z"/>
<path fill="#FBB132" d="M27.4,30.5v-0.5c1.4-1.2,3.4-2.8,6.1-5c1.3-1.3,1.9-2.7,2-4.2c0.1-1.6-0.8-2.2-2.7-1.7
	c-1.7,0.8-3.1,1.9-4.3,3.3c-1.8,1.9-3.5,3.6-4.9,5c-0.6,0-0.8-0.3-0.5-0.7v-3.1c0-2.7-0.9-4.2-2.8-4.5v22.2c0.2,0,0.4,0.1,0.6,0.1
	h0.4c1.1,0,1.8-0.7,2-2.2c0.1-0.9,0.2-1.5,0.2-1.8v-2.2c0-0.7,0.4-1.3,1.1-1.8h0.4l3.3,3.1c2.5,3.1,4.3,4.7,5.4,4.7h0.7
	c0.7-0.5,1.1-1.1,1.1-1.8v-0.6l-1.6-2C29.5,32.8,27.4,30.7,27.4,30.5z"/>
<path fill="#FBB132" d="M14.3,19.1c-0.5,0-0.8,0.5-0.8,1s0.4,1,0.8,1H15h1.3h0.1c0.4,0,0.7,0.4,0.7,0.9v0c0,0.5-0.3,0.8-0.7,0.9
	c0,0,0,0-0.1,0H15h-4.7c-0.5,0-0.8,0.5-0.8,1c0,0.6,0.4,1,0.8,1h6.6h1.4h0.1c0.4,0,0.7,0.4,0.7,0.8c0,0.5-0.3,0.8-0.7,0.8h-0.1h-1.4
	H6.3c-0.5,0-0.8,0.5-0.8,1s0.4,1,0.8,1h13.9h0.2v-9.6H14.3z"/>
<path fill="#FBB132" d="M8,23.9c0-0.6-0.5-1-1.1-1H3.7c-0.6,0-1.1,0.5-1.1,1s0.5,1,1.1,1h3.2C7.5,25,8,24.5,8,23.9z"/>
<path fill="#FBB132" d="M18.6,29.9c0,0.6-0.4,1.1-0.8,1.1h-0.2c0,0,0,0,0,0H9.4c-0.4,0-0.7,0.5-0.7,1c0,0.6,0.3,1,0.7,1h6.1h0.3h0.7
	c0.4,0,0.7,0.4,0.7,0.9c0,0.5-0.3,0.9-0.7,0.9h-0.7h-0.3h-3.3c-0.4,0-0.7,0.5-0.7,1c0,0.6,0.3,1,0.7,1h6.1h0.4H19
	c0.4,0,0.8,0.5,0.8,1.1s-0.3,1.1-0.8,1.1h-0.1c0,0,0,0,0,0H7.4c-0.4,0-0.7,0.5-0.7,1v0c0,0.6,0.3,1,0.7,1h11.5
	c0.2,0.1,0.3,0.1,0.3,0.1h1.3V28.7h-2.7C18.2,28.7,18.6,29.2,18.6,29.9z"/>
</svg>
